<svg width="187" height="104" viewBox="0 0 187 104" fill="none" xmlns="http://www.w3.org/2000/svg">
<path d="M35.776 66.464C34.048 67.136 32.704 67.472 31.744 67.472C28.864 67.472 27.256 67.064 26.92 66.248C22.12 53.912 18.952 45.968 17.416 42.416C17.272 43.712 16.888 46.712 16.264 51.416C14.968 60.632 14.32 68.288 14.32 74.384C14.32 75.872 14.416 77.864 14.608 80.36C11.248 80.36 8.968 79.976 7.768 79.208C6.616 78.392 6.04 77.264 6.04 75.824C6.04 75.344 6.832 68.816 8.416 56.24C10.048 43.664 10.864 34.904 10.864 29.96V29.6C9.472 27.344 8.008 25.496 6.472 24.056C8.248 22.808 10.384 22.184 12.88 22.184C16.048 22.184 18.496 23.672 20.224 26.648C21.952 29.576 25.336 37.664 30.376 50.912L33.688 59.408C33.976 58.928 34.408 58.28 34.984 57.464C46.696 40.136 52.72 28.376 53.056 22.184C53.056 22.232 53.632 22.304 54.784 22.4C55.936 22.448 57.16 22.688 58.456 23.12C59.8 23.504 60.76 24.128 61.336 24.992C61.96 25.808 62.344 26.624 62.488 27.44C62.632 28.208 62.704 29.552 62.704 31.472C62.704 33.344 61.912 39.704 60.328 50.552C58.744 61.4 57.952 69.008 57.952 73.376C57.952 77.696 58.288 80.648 58.96 82.232C54.88 81.176 52.096 79.784 50.608 78.056C49.12 76.28 48.376 73.832 48.376 70.712C48.376 68.888 48.856 64.4 49.816 57.248C50.824 50.096 51.52 44.384 51.904 40.112C49.984 43.424 47.248 47.96 43.696 53.72C40.192 59.48 38.08 62.912 37.36 64.016C36.64 65.072 36.112 65.888 35.776 66.464ZM86.8596 53.447C84.5629 53.447 82.5136 55.0017 80.7116 58.111C78.9096 61.185 78.0086 64.259 78.0086 67.333C78.0086 73.7637 79.6692 76.979 82.9906 76.979C85.3579 76.979 87.2836 75.442 88.7676 72.368C90.2516 69.2587 90.9936 65.7783 90.9936 61.927C90.9936 56.2737 89.6156 53.447 86.8596 53.447ZM82.3546 48.677C82.7432 48.677 83.0966 48.8007 83.4146 49.048C83.7679 49.26 83.9446 49.4897 83.9446 49.737C80.3759 52.2103 78.2382 55.6553 77.5316 60.072C78.2736 58.0933 79.1746 56.3797 80.2346 54.931C81.3299 53.4823 82.4606 52.387 83.6266 51.645C85.8526 50.267 88.0256 49.578 90.1456 49.578C92.2656 49.578 94.0676 50.6203 95.5516 52.705C97.0356 54.7897 97.7776 57.581 97.7776 61.079C97.7776 65.001 96.9826 68.605 95.3926 71.891C93.6259 75.601 91.1172 78.1627 87.8666 79.576C86.0292 80.3887 84.0152 80.795 81.8246 80.795C78.7506 80.795 76.0652 79.6113 73.7686 77.244C71.5072 74.8413 70.3766 71.414 70.3766 66.962C70.3766 62.4747 71.4719 58.535 73.6626 55.143C75.8532 51.7157 78.7506 49.5603 82.3546 48.677ZM119.571 53.447C117.274 53.447 115.225 55.0017 113.423 58.111C111.621 61.185 110.72 64.259 110.72 67.333C110.72 73.7637 112.38 76.979 115.702 76.979C118.069 76.979 119.995 75.442 121.479 72.368C122.963 69.2587 123.705 65.7783 123.705 61.927C123.705 56.2737 122.327 53.447 119.571 53.447ZM115.066 48.677C115.454 48.677 115.808 48.8007 116.126 49.048C116.479 49.26 116.656 49.4897 116.656 49.737C113.087 52.2103 110.949 55.6553 110.243 60.072C110.985 58.0933 111.886 56.3797 112.946 54.931C114.041 53.4823 115.172 52.387 116.338 51.645C118.564 50.267 120.737 49.578 122.857 49.578C124.977 49.578 126.779 50.6203 128.263 52.705C129.747 54.7897 130.489 57.581 130.489 61.079C130.489 65.001 129.694 68.605 128.104 71.891C126.337 75.601 123.828 78.1627 120.578 79.576C118.74 80.3887 116.726 80.795 114.536 80.795C111.462 80.795 108.776 79.6113 106.48 77.244C104.218 74.8413 103.088 71.414 103.088 66.962C103.088 62.4747 104.183 58.535 106.374 55.143C108.564 51.7157 111.462 49.5603 115.066 48.677ZM144.649 62.775C145.921 58.1817 147.441 54.8073 149.207 52.652C151.009 50.4613 152.67 49.366 154.189 49.366C155.744 49.366 156.91 49.949 157.687 51.115C158.465 52.2457 158.853 53.7297 158.853 55.567C158.853 57.369 158.306 59.0297 157.21 60.549C156.15 62.0683 154.684 62.828 152.811 62.828C152.317 62.828 151.734 62.6867 151.062 62.404C152.158 61.026 152.705 59.3653 152.705 57.422C152.705 56.2913 152.246 55.726 151.327 55.726C150.656 55.726 149.932 56.203 149.154 57.157C148.377 58.0757 147.635 59.3653 146.928 61.026C146.222 62.6513 145.621 64.7537 145.126 67.333C144.667 69.877 144.437 72.5977 144.437 75.495C144.437 75.8483 144.526 77.35 144.702 80C143.572 80.0707 142.847 80.106 142.529 80.106C140.515 80.106 139.067 79.7527 138.183 79.046C137.3 78.3393 136.858 77.1733 136.858 75.548C136.858 74.8413 137.229 72.1207 137.971 67.386C138.713 62.6513 139.084 58.8883 139.084 56.097C139.084 53.2703 138.784 50.6733 138.183 48.306C140.763 49.1187 142.565 50.2847 143.589 51.804C144.614 53.288 145.126 55.037 145.126 57.051C145.126 59.0297 144.967 60.9377 144.649 62.775ZM173.105 66.962C171.409 66.962 169.748 66.7677 168.123 66.379C168.087 66.7323 168.07 67.28 168.07 68.022C168.07 70.9547 168.617 73.163 169.713 74.647C170.808 76.131 172.115 76.873 173.635 76.873C175.154 76.873 176.603 76.4137 177.981 75.495C179.359 74.5763 180.56 73.3043 181.585 71.679C182.857 71.9617 183.493 72.6153 183.493 73.64C180.383 78.41 176.373 80.795 171.462 80.795C168.494 80.795 165.897 79.6643 163.671 77.403C161.445 75.1063 160.332 71.9263 160.332 67.863C160.332 64.8243 160.915 61.9447 162.081 59.224C163.247 56.468 165.102 54.1537 167.646 52.281C170.19 50.373 172.999 49.419 176.073 49.419C179.182 49.419 181.461 50.1257 182.91 51.539C184.358 52.9523 185.083 54.8073 185.083 57.104C185.083 60.4253 183.917 62.8987 181.585 64.524C179.288 66.1493 176.461 66.962 173.105 66.962ZM175.331 52.705C173.529 52.705 172.009 53.818 170.773 56.044C169.536 58.27 168.723 60.973 168.335 64.153H169.13C172.204 64.153 174.465 63.358 175.914 61.768C177.398 60.178 178.14 58.27 178.14 56.044C178.14 55.1253 177.892 54.348 177.398 53.712C176.938 53.0407 176.249 52.705 175.331 52.705Z" fill="#759F6C"/>
<path d="M34.776 65.464C33.048 66.136 31.704 66.472 30.744 66.472C27.864 66.472 26.256 66.064 25.92 65.248C21.12 52.912 17.952 44.968 16.416 41.416C16.272 42.712 15.888 45.712 15.264 50.416C13.968 59.632 13.32 67.288 13.32 73.384C13.32 74.872 13.416 76.864 13.608 79.36C10.248 79.36 7.968 78.976 6.768 78.208C5.616 77.392 5.04 76.264 5.04 74.824C5.04 74.344 5.832 67.816 7.416 55.24C9.048 42.664 9.864 33.904 9.864 28.96V28.6C8.472 26.344 7.008 24.496 5.472 23.056C7.248 21.808 9.384 21.184 11.88 21.184C15.048 21.184 17.496 22.672 19.224 25.648C20.952 28.576 24.336 36.664 29.376 49.912L32.688 58.408C32.976 57.928 33.408 57.28 33.984 56.464C45.696 39.136 51.72 27.376 52.056 21.184C52.056 21.232 52.632 21.304 53.784 21.4C54.936 21.448 56.16 21.688 57.456 22.12C58.8 22.504 59.76 23.128 60.336 23.992C60.96 24.808 61.344 25.624 61.488 26.44C61.632 27.208 61.704 28.552 61.704 30.472C61.704 32.344 60.912 38.704 59.328 49.552C57.744 60.4 56.952 68.008 56.952 72.376C56.952 76.696 57.288 79.648 57.96 81.232C53.88 80.176 51.096 78.784 49.608 77.056C48.12 75.28 47.376 72.832 47.376 69.712C47.376 67.888 47.856 63.4 48.816 56.248C49.824 49.096 50.52 43.384 50.904 39.112C48.984 42.424 46.248 46.96 42.696 52.72C39.192 58.48 37.08 61.912 36.36 63.016C35.64 64.072 35.112 64.888 34.776 65.464ZM85.8596 52.447C83.5629 52.447 81.5136 54.0017 79.7116 57.111C77.9096 60.185 77.0086 63.259 77.0086 66.333C77.0086 72.7637 78.6692 75.979 81.9906 75.979C84.3579 75.979 86.2836 74.442 87.7676 71.368C89.2516 68.2587 89.9936 64.7783 89.9936 60.927C89.9936 55.2737 88.6156 52.447 85.8596 52.447ZM81.3546 47.677C81.7432 47.677 82.0966 47.8007 82.4146 48.048C82.7679 48.26 82.9446 48.4897 82.9446 48.737C79.3759 51.2103 77.2382 54.6553 76.5316 59.072C77.2736 57.0933 78.1746 55.3797 79.2346 53.931C80.3299 52.4823 81.4606 51.387 82.6266 50.645C84.8526 49.267 87.0256 48.578 89.1456 48.578C91.2656 48.578 93.0676 49.6203 94.5516 51.705C96.0356 53.7897 96.7776 56.581 96.7776 60.079C96.7776 64.001 95.9826 67.605 94.3926 70.891C92.6259 74.601 90.1172 77.1627 86.8666 78.576C85.0292 79.3887 83.0152 79.795 80.8246 79.795C77.7506 79.795 75.0652 78.6113 72.7686 76.244C70.5072 73.8413 69.3766 70.414 69.3766 65.962C69.3766 61.4747 70.4719 57.535 72.6626 54.143C74.8532 50.7157 77.7506 48.5603 81.3546 47.677ZM118.571 52.447C116.274 52.447 114.225 54.0017 112.423 57.111C110.621 60.185 109.72 63.259 109.72 66.333C109.72 72.7637 111.38 75.979 114.702 75.979C117.069 75.979 118.995 74.442 120.479 71.368C121.963 68.2587 122.705 64.7783 122.705 60.927C122.705 55.2737 121.327 52.447 118.571 52.447ZM114.066 47.677C114.454 47.677 114.808 47.8007 115.126 48.048C115.479 48.26 115.656 48.4897 115.656 48.737C112.087 51.2103 109.949 54.6553 109.243 59.072C109.985 57.0933 110.886 55.3797 111.946 53.931C113.041 52.4823 114.172 51.387 115.338 50.645C117.564 49.267 119.737 48.578 121.857 48.578C123.977 48.578 125.779 49.6203 127.263 51.705C128.747 53.7897 129.489 56.581 129.489 60.079C129.489 64.001 128.694 67.605 127.104 70.891C125.337 74.601 122.828 77.1627 119.578 78.576C117.74 79.3887 115.726 79.795 113.536 79.795C110.462 79.795 107.776 78.6113 105.48 76.244C103.218 73.8413 102.088 70.414 102.088 65.962C102.088 61.4747 103.183 57.535 105.374 54.143C107.564 50.7157 110.462 48.5603 114.066 47.677ZM143.649 61.775C144.921 57.1817 146.441 53.8073 148.207 51.652C150.009 49.4613 151.67 48.366 153.189 48.366C154.744 48.366 155.91 48.949 156.687 50.115C157.465 51.2457 157.853 52.7297 157.853 54.567C157.853 56.369 157.306 58.0297 156.21 59.549C155.15 61.0683 153.684 61.828 151.811 61.828C151.317 61.828 150.734 61.6867 150.062 61.404C151.158 60.026 151.705 58.3653 151.705 56.422C151.705 55.2913 151.246 54.726 150.327 54.726C149.656 54.726 148.932 55.203 148.154 56.157C147.377 57.0757 146.635 58.3653 145.928 60.026C145.222 61.6513 144.621 63.7537 144.126 66.333C143.667 68.877 143.437 71.5977 143.437 74.495C143.437 74.8483 143.526 76.35 143.702 79C142.572 79.0707 141.847 79.106 141.529 79.106C139.515 79.106 138.067 78.7527 137.183 78.046C136.3 77.3393 135.858 76.1733 135.858 74.548C135.858 73.8413 136.229 71.1207 136.971 66.386C137.713 61.6513 138.084 57.8883 138.084 55.097C138.084 52.2703 137.784 49.6733 137.183 47.306C139.763 48.1187 141.565 49.2847 142.589 50.804C143.614 52.288 144.126 54.037 144.126 56.051C144.126 58.0297 143.967 59.9377 143.649 61.775ZM172.105 65.962C170.409 65.962 168.748 65.7677 167.123 65.379C167.087 65.7323 167.07 66.28 167.07 67.022C167.07 69.9547 167.617 72.163 168.713 73.647C169.808 75.131 171.115 75.873 172.635 75.873C174.154 75.873 175.603 75.4137 176.981 74.495C178.359 73.5763 179.56 72.3043 180.585 70.679C181.857 70.9617 182.493 71.6153 182.493 72.64C179.383 77.41 175.373 79.795 170.462 79.795C167.494 79.795 164.897 78.6643 162.671 76.403C160.445 74.1063 159.332 70.9263 159.332 66.863C159.332 63.8243 159.915 60.9447 161.081 58.224C162.247 55.468 164.102 53.1537 166.646 51.281C169.19 49.373 171.999 48.419 175.073 48.419C178.182 48.419 180.461 49.1257 181.91 50.539C183.358 51.9523 184.083 53.8073 184.083 56.104C184.083 59.4253 182.917 61.8987 180.585 63.524C178.288 65.1493 175.461 65.962 172.105 65.962ZM174.331 51.705C172.529 51.705 171.009 52.818 169.773 55.044C168.536 57.27 167.723 59.973 167.335 63.153H168.13C171.204 63.153 173.465 62.358 174.914 60.768C176.398 59.178 177.14 57.27 177.14 55.044C177.14 54.1253 176.892 53.348 176.398 52.712C175.938 52.0407 175.249 51.705 174.331 51.705Z" fill="#2F5427"/>
<path d="M76.404 28.2C77.272 28.2 78.0233 28.3447 78.658 28.634C79.302 28.9233 79.7967 29.334 80.142 29.866C80.4873 30.398 80.66 31.028 80.66 31.756C80.66 32.4747 80.4873 33.1047 80.142 33.646C79.7967 34.178 79.302 34.5887 78.658 34.878C78.0233 35.158 77.272 35.298 76.404 35.298H74.43V38H72.162V28.2H76.404ZM76.278 33.45C76.9593 33.45 77.4773 33.3053 77.832 33.016C78.1867 32.7173 78.364 32.2973 78.364 31.756C78.364 31.2053 78.1867 30.7853 77.832 30.496C77.4773 30.1973 76.9593 30.048 76.278 30.048H74.43V33.45H76.278ZM82.2792 28.2H84.5472V38H82.2792V28.2ZM94.8109 36.152V38H86.2429V36.53L91.6189 30.048H86.3549V28.2H94.6009V29.67L89.2389 36.152H94.8109ZM104.204 36.152V38H95.6355V36.53L101.012 30.048H95.7475V28.2H103.994V29.67L98.6315 36.152H104.204ZM112.112 35.9H107.562L106.694 38H104.37L108.738 28.2H110.978L115.36 38H112.98L112.112 35.9ZM111.398 34.178L109.844 30.426L108.29 34.178H111.398Z" fill="#D54B2B"/>
</svg>
