<?xml version="1.0" standalone="no"?>
<!DOCTYPE svg PUBLIC "-//W3C//DTD SVG 20010904//EN"
 "http://www.w3.org/TR/2001/REC-SVG-20010904/DTD/svg10.dtd">
<svg version="1.0" xmlns="http://www.w3.org/2000/svg"
 width="976.000000pt" height="976.000000pt" viewBox="0 0 976.000000 976.000000"
 preserveAspectRatio="xMidYMid meet">
<metadata>
Created by potrace 1.11, written by Peter Selinger 2001-2013
</metadata>
<g transform="translate(0.000000,976.000000) scale(0.100000,-0.100000)"
fill="#000000" stroke="none">
<path d="M1218 9725 c-2 -2 -28 -6 -58 -10 -30 -4 -66 -8 -80 -10 -80 -10
-250 -57 -332 -90 -31 -13 -59 -21 -62 -18 -3 4 -6 1 -6 -5 0 -7 -8 -12 -17
-12 -10 0 -27 -7 -37 -15 -10 -8 -23 -12 -27 -9 -5 3 -9 1 -9 -5 0 -5 -16 -15
-35 -22 -19 -7 -35 -17 -35 -21 0 -4 -5 -8 -11 -8 -8 0 -82 -46 -108 -67 -2
-1 18 -25 45 -51 93 -93 204 -215 280 -311 11 -13 24 -28 29 -35 35 -38 225
-302 225 -311 0 -3 5 -11 11 -18 5 -7 32 -45 59 -86 l49 -74 -5 -236 c-7 -320
-9 -379 -17 -387 -3 -4 -2 -15 4 -25 5 -11 6 -19 2 -19 -4 0 -8 -30 -9 -68 -1
-65 -10 -215 -19 -317 -3 -27 -7 -84 -10 -126 -3 -41 -7 -93 -9 -115 -3 -21
-8 -75 -11 -119 -3 -44 -8 -109 -12 -145 -3 -36 -6 -82 -7 -102 0 -21 -3 -38
-6 -38 -3 0 -5 -19 -6 -43 0 -43 -12 -178 -19 -232 -3 -16 -7 -55 -10 -85 -3
-30 -8 -77 -11 -105 -3 -27 -7 -70 -9 -95 -2 -25 -6 -65 -9 -90 -4 -25 -8 -70
-11 -100 -2 -30 -4 -55 -5 -55 -1 0 -3 -16 -5 -35 -2 -19 -6 -57 -9 -85 -10
-77 -15 -125 -21 -185 -3 -30 -7 -66 -9 -80 -2 -14 -7 -52 -10 -85 -4 -33 -8
-71 -10 -85 -2 -14 -7 -54 -11 -90 -4 -36 -9 -78 -11 -95 -3 -16 -6 -48 -8
-70 -3 -36 -7 -75 -22 -175 -2 -19 -7 -55 -9 -80 -3 -25 -7 -61 -11 -80 -3
-19 -7 -53 -9 -75 -3 -22 -7 -58 -10 -80 -3 -22 -7 -53 -9 -70 -4 -51 -18
-159 -23 -180 -2 -11 -6 -36 -8 -55 -1 -19 -6 -60 -10 -90 -4 -30 -9 -66 -10
-80 -2 -14 -6 -43 -9 -65 -3 -22 -8 -60 -11 -85 -7 -78 -15 -144 -20 -180 -3
-19 -8 -57 -11 -85 -3 -27 -8 -53 -10 -57 -5 -7 -14 -113 -18 -185 0 -18 -3
-33 -6 -33 -4 0 -6 -10 -7 -22 -2 -33 -12 -133 -13 -133 -1 0 -3 -11 -5 -25
-4 -41 -16 -143 -21 -175 -9 -65 -15 -112 -19 -150 -2 -22 -7 -60 -10 -85 -3
-25 -8 -65 -11 -90 -3 -25 -7 -61 -10 -80 -3 -19 -7 -53 -10 -75 -2 -22 -6
-56 -9 -75 -2 -19 -7 -59 -10 -89 -4 -30 -9 -63 -11 -75 -2 -12 -6 -46 -9 -76
-3 -30 -7 -71 -10 -90 -3 -19 -7 -57 -11 -85 -7 -61 -9 -85 -19 -155 -4 -30
-9 -66 -10 -80 -8 -74 -17 -148 -21 -170 -2 -14 -7 -54 -10 -88 -3 -35 -7 -73
-10 -85 -2 -12 -7 -49 -10 -82 -3 -33 -8 -71 -9 -85 -2 -14 -6 -49 -9 -78 -3
-28 -9 -76 -12 -105 -3 -28 -8 -68 -10 -87 -12 -115 6 -310 29 -310 6 0 8 -3
4 -6 -3 -4 0 -19 9 -35 8 -16 14 -31 13 -35 -3 -16 88 -138 140 -185 53 -49
201 -139 201 -123 0 4 6 2 13 -4 14 -12 189 -59 247 -68 19 -3 46 -7 60 -9 24
-5 83 -12 165 -21 83 -9 244 -17 360 -18 l120 -1 -4 70 c-2 39 -5 95 -7 125
-23 296 -28 455 -27 835 0 215 3 464 7 555 4 91 9 206 11 255 2 50 4 90 5 90
1 0 3 30 5 66 5 101 15 260 20 304 2 22 7 76 10 120 6 82 12 157 20 255 3 30
7 80 10 110 3 30 7 80 10 110 3 30 8 77 10 105 2 27 6 70 9 95 3 25 8 68 10
95 7 64 17 152 22 190 2 17 6 55 9 85 2 30 7 75 10 100 7 50 12 90 20 165 2
28 7 66 10 85 3 19 7 54 10 78 3 23 7 61 10 85 3 23 7 58 10 77 3 19 7 51 9
70 3 19 8 58 11 85 4 28 9 66 10 85 2 19 4 35 5 35 2 0 3 11 14 96 4 31 9 67
12 80 2 13 6 42 9 64 2 22 7 55 9 73 3 18 8 50 11 71 3 21 8 61 11 87 3 27 7
63 9 79 2 17 6 53 9 80 4 28 8 61 11 75 2 14 7 45 10 70 5 40 9 73 30 226 3
23 8 61 10 85 3 24 7 55 10 69 2 13 7 54 11 90 3 36 8 73 10 84 2 10 6 44 10
75 3 31 8 63 9 71 3 14 12 98 21 175 1 17 4 32 5 35 0 3 0 14 -1 25 -4 46 24
-11 115 -230 53 -127 101 -241 107 -255 10 -24 22 -52 38 -95 5 -11 27 -64 49
-118 23 -54 41 -100 41 -103 0 -3 7 -20 15 -37 8 -18 51 -124 95 -237 45 -113
89 -221 97 -240 23 -53 27 -63 96 -240 35 -91 68 -174 72 -185 5 -11 9 -22 10
-25 1 -3 7 -16 12 -30 6 -14 27 -67 47 -119 20 -52 42 -108 50 -125 7 -17 27
-69 45 -116 18 -47 38 -98 46 -115 7 -16 41 -102 75 -190 68 -176 73 -189 88
-225 10 -24 38 -96 89 -230 13 -36 31 -77 39 -92 8 -14 14 -35 14 -45 0 -10 4
-23 9 -28 8 -9 45 -103 46 -115 0 -3 3 -9 6 -15 4 -5 30 -71 59 -145 28 -74
55 -144 60 -155 5 -11 32 -81 61 -155 29 -74 62 -147 73 -162 39 -52 196 -111
351 -132 131 -18 401 -25 515 -12 30 3 98 17 150 31 52 14 103 27 113 30 9 2
21 6 25 9 5 3 19 7 33 10 13 3 63 20 111 37 80 29 90 35 118 78 16 25 33 51
38 56 4 6 9 13 10 17 3 10 153 242 161 248 3 3 11 14 18 25 6 11 42 68 80 128
37 59 73 115 78 125 6 9 40 66 78 124 37 59 67 112 67 118 0 5 3 10 8 10 4 0
19 21 35 48 30 52 40 68 77 127 14 22 34 57 45 78 11 20 23 37 27 37 5 0 8 4
8 9 0 6 25 50 54 98 59 95 161 262 186 304 16 27 124 202 152 247 9 15 23 38
31 52 43 77 112 185 119 188 4 2 8 8 8 13 0 6 16 35 35 65 19 30 35 56 35 59
-1 3 6 13 15 21 8 9 15 22 15 30 0 8 4 14 9 14 5 0 14 14 21 30 7 17 15 30 19
30 4 0 12 12 19 28 16 37 45 86 55 93 4 3 16 20 25 38 37 69 215 356 223 359
5 2 7 8 3 13 -3 5 0 9 5 9 6 0 11 9 11 19 0 11 4 21 8 23 5 2 60 89 123 193
63 105 116 192 119 195 5 5 10 13 52 89 11 20 28 47 38 61 9 14 20 32 24 40 4
8 12 24 19 35 88 143 296 495 340 575 58 105 59 105 52 10 -4 -47 -8 -101 -10
-120 -5 -53 -15 -140 -21 -190 -2 -25 -7 -68 -9 -95 -3 -28 -7 -70 -10 -95
-14 -117 -16 -138 -18 -182 -1 -27 -4 -48 -7 -48 -3 0 -5 -12 -6 -27 0 -16 -3
-53 -7 -83 -12 -91 -15 -121 -28 -230 -11 -100 -16 -135 -19 -135 0 0 -3 -22
-5 -50 -1 -27 -6 -68 -9 -91 -7 -45 -15 -109 -20 -164 -2 -19 -6 -51 -10 -70
-8 -50 -17 -109 -22 -155 -6 -54 -12 -100 -14 -100 -1 0 -3 -20 -4 -45 -2 -25
-6 -58 -9 -75 -7 -36 -15 -94 -22 -155 -5 -47 -23 -175 -31 -224 -3 -15 -7
-49 -9 -75 -3 -25 -7 -57 -10 -71 -5 -26 -10 -63 -21 -145 -3 -27 -8 -58 -10
-69 -2 -10 -6 -44 -9 -75 -4 -31 -8 -67 -11 -81 -2 -14 -7 -47 -10 -75 -3 -27
-8 -61 -10 -75 -3 -14 -7 -41 -9 -60 -3 -36 -14 -125 -20 -170 -2 -14 -6 -52
-10 -85 -4 -33 -9 -67 -10 -76 -3 -15 -20 -150 -30 -239 -2 -19 -6 -53 -9 -75
-2 -22 -8 -69 -11 -105 -4 -36 -8 -72 -10 -81 -2 -8 -6 -48 -10 -88 -3 -40 -8
-80 -10 -89 -3 -16 -14 -137 -20 -213 -1 -20 -4 -41 -6 -45 -2 -5 -4 -35 -4
-66 0 -32 -2 -58 -5 -58 -13 0 -19 -502 -7 -620 8 -82 16 -139 22 -166 2 -12
7 -38 11 -59 21 -132 112 -383 177 -490 101 -165 210 -287 349 -388 42 -32 79
-57 81 -57 3 0 28 -16 57 -35 29 -19 58 -35 65 -35 7 0 15 -4 17 -8 3 -8 122
-68 211 -106 20 -9 52 -23 70 -31 35 -16 170 -66 258 -95 89 -30 359 -109 359
-105 0 5 -22 71 -30 90 -8 18 -19 59 -26 94 -1 7 -7 34 -13 60 -13 54 -19 91
-27 146 -3 22 -7 51 -10 65 -15 84 -33 293 -38 441 -1 41 -5 80 -8 85 -4 8 -3
779 2 779 1 0 3 32 5 70 9 202 30 493 40 575 3 19 7 68 10 109 3 41 7 93 10
115 2 23 7 68 10 101 4 33 9 80 12 105 3 25 7 65 8 90 2 25 4 45 5 45 1 0 9
72 15 140 2 28 5 50 5 50 1 0 3 14 4 30 4 38 16 152 21 185 10 70 15 110 20
161 3 31 7 66 10 78 2 12 7 50 11 84 3 34 8 73 10 87 2 14 6 43 8 65 12 96 23
175 32 230 3 17 7 50 9 75 3 25 7 56 9 69 3 13 8 49 12 80 4 31 8 67 10 81 2
14 6 43 8 65 8 58 27 188 40 273 3 15 7 47 10 72 3 25 8 61 11 80 3 19 7 51
10 70 2 19 6 49 9 65 7 42 20 135 31 220 3 22 7 51 10 65 3 13 7 42 10 65 3
22 8 51 10 65 2 14 7 50 10 80 3 30 8 62 10 70 2 8 7 38 10 65 3 28 7 61 10
75 3 13 7 42 10 65 4 22 8 51 10 65 2 14 6 48 10 75 3 28 7 61 10 75 3 14 7
41 9 60 12 102 23 175 26 175 0 0 3 21 5 46 2 26 7 60 10 75 3 16 8 53 11 83
3 30 8 64 10 75 2 12 6 44 9 71 3 28 8 64 11 80 3 17 7 48 9 70 3 22 7 58 10
80 10 64 13 87 20 145 4 30 10 84 15 120 5 36 12 92 15 125 4 33 9 71 11 85 3
14 7 50 9 80 3 30 8 71 11 90 5 36 9 70 19 175 3 33 8 76 10 95 3 19 7 62 10
95 3 33 8 89 11 125 6 72 6 461 -1 555 -6 96 -16 206 -21 229 -2 12 -7 35 -9
51 -7 40 -23 92 -42 135 -32 75 -67 140 -75 140 -4 0 -7 3 -6 8 4 11 -72 118
-123 171 -50 53 -136 115 -214 154 -53 26 -361 129 -382 127 -2 0 -4 0 -5 1
-8 2 -37 8 -68 13 -19 4 -42 9 -50 11 -8 2 -33 7 -55 10 -23 3 -50 7 -61 9
-11 2 -65 7 -120 11 -54 4 -112 9 -129 11 -16 2 -55 5 -85 8 -30 2 -60 5 -65
6 -24 5 -31 -2 -32 -32 -3 -53 -11 -133 -13 -138 -1 -3 -2 -8 -1 -12 0 -4 -9
-51 -21 -105 -11 -54 -21 -108 -20 -120 0 -13 -3 -23 -7 -23 -4 0 -8 -6 -8
-12 -1 -30 -78 -305 -100 -358 -3 -8 -7 -19 -9 -25 -1 -5 -9 -26 -18 -46 -8
-20 -12 -39 -9 -43 4 -3 1 -6 -5 -6 -7 0 -11 -3 -10 -7 3 -11 -33 -115 -44
-129 -5 -7 -10 -20 -12 -30 -7 -31 -181 -447 -209 -499 -6 -11 -12 -22 -12
-25 0 -3 -9 -19 -18 -37 -9 -18 -17 -39 -17 -48 0 -8 -4 -15 -10 -15 -5 0 -10
-4 -10 -9 0 -5 -20 -51 -45 -102 -24 -52 -44 -98 -44 -103 1 -5 -3 -12 -8 -15
-5 -3 -22 -33 -38 -66 -15 -33 -33 -63 -38 -66 -5 -3 -8 -10 -8 -15 1 -5 -24
-58 -56 -119 -31 -60 -57 -112 -57 -115 0 -3 -7 -13 -16 -23 -8 -10 -13 -19
-10 -20 3 -1 -5 -18 -16 -37 -23 -37 -42 -71 -130 -233 -30 -56 -59 -109 -65
-117 -5 -8 -26 -46 -47 -85 -21 -38 -48 -87 -60 -107 -12 -21 -31 -55 -43 -75
-12 -21 -44 -78 -72 -126 -29 -48 -57 -95 -62 -105 -40 -69 -124 -210 -143
-240 -12 -20 -27 -46 -32 -57 -10 -21 -29 -51 -43 -69 -8 -11 -219 -357 -248
-406 -7 -14 -16 -27 -19 -30 -3 -3 -43 -66 -89 -140 -85 -137 -132 -210 -226
-355 -28 -44 -80 -125 -116 -180 -116 -180 -248 -380 -259 -392 -6 -7 -7 -13
-3 -13 4 0 3 -4 -3 -8 -12 -8 -105 -147 -116 -175 -4 -9 -12 -17 -18 -17 -5 0
-10 -7 -10 -15 0 -8 -4 -15 -10 -15 -5 0 -10 -6 -10 -13 0 -7 -8 -22 -18 -33
-11 -11 -21 -24 -23 -30 -2 -5 -69 -105 -149 -222 -80 -117 -154 -228 -164
-247 -11 -19 -22 -32 -26 -30 -4 2 -15 26 -24 52 -10 26 -24 62 -31 78 -7 17
-21 53 -31 80 -10 28 -24 61 -31 75 -7 14 -13 33 -13 42 0 9 -5 20 -10 23 -6
4 -8 11 -5 16 4 5 1 9 -5 9 -6 0 -9 4 -5 9 3 5 1 12 -5 16 -5 3 -10 13 -10 21
0 8 -8 34 -18 57 -25 56 -44 103 -88 217 -20 52 -41 106 -47 120 -5 14 -11 30
-12 35 -4 13 -43 114 -55 140 -20 43 -70 181 -70 193 0 6 -4 12 -10 12 -5 0
-9 3 -8 8 0 4 -2 16 -6 27 -10 25 -36 94 -46 120 -19 47 -23 60 -22 68 1 4 -2
7 -6 7 -5 0 -9 6 -9 13 0 6 -12 41 -26 77 -26 68 -39 102 -42 110 -1 3 -7 19
-14 35 -6 17 -25 66 -42 110 -17 44 -46 118 -65 165 -19 47 -34 89 -34 92 0 4
-5 19 -12 35 -6 15 -12 30 -13 33 -1 3 -7 19 -14 35 -54 131 -121 309 -121
320 0 7 -6 20 -12 27 -7 7 -14 18 -15 23 -1 9 -74 205 -93 250 -4 11 -15 36
-23 55 -8 19 -27 67 -42 105 -15 39 -31 79 -36 90 -11 27 -32 79 -34 85 0 3
-7 16 -15 30 -7 14 -13 27 -13 30 1 8 -8 33 -28 77 -10 24 -19 46 -19 51 0 5
-9 27 -20 50 -11 22 -20 46 -20 52 0 5 -4 18 -9 28 -13 23 -35 76 -61 142 -12
30 -28 69 -35 85 -8 17 -30 71 -50 120 -20 50 -43 104 -50 120 -7 17 -23 55
-35 85 -12 30 -31 75 -42 100 -11 25 -24 54 -28 65 -73 170 -106 248 -123 285
-12 25 -20 48 -19 53 1 4 -2 7 -8 7 -6 0 -9 3 -8 8 4 19 -221 494 -320 677
-85 156 -135 229 -242 354 -70 82 -99 110 -194 184 -84 65 -81 63 -192 123
-71 39 -271 107 -291 100 -7 -3 -13 -2 -13 2 0 4 -8 8 -17 9 -10 1 -31 5 -48
9 -29 6 -421 15 -427 9z"/>
</g>
</svg>
